<?xml version="1.0" encoding="UTF-8"?>
<svg width="31px" height="31px" viewBox="0 0 31 31" version="1.1" xmlns="http://www.w3.org/2000/svg" xmlns:xlink="http://www.w3.org/1999/xlink">
    <!-- Generator: Sketch 49.1 (51147) - http://www.bohemiancoding.com/sketch -->
    <title>Shape</title>
    <desc>Created with Sketch.</desc>
    <defs></defs>
    <g id="Page-1" stroke="none" stroke-width="1" fill="none" fill-rule="evenodd" opacity="0.748018569">
        <g id="Home-Page" transform="translate(-1027.000000, -570.000000)" fill="#000000">
            <path d="M1049.15906,581.504259 L1047.75174,581.504259 L1047.26255,581.989881 C1048.99068,584.005031 1050.04174,586.61746 1050.04174,589.47979 C1050.04174,595.84249 1044.88393,601 1038.52087,601 C1032.1578,601 1027,595.84249 1027,589.47979 C1027,583.117089 1032.1578,577.959579 1038.52087,577.959579 C1041.38336,577.959579 1043.99417,579.008805 1046.00943,580.735064 L1046.49863,580.249443 L1046.49863,578.845749 L1055.35729,570 L1058,572.642559 L1049.15906,581.504259 L1049.15906,581.504259 Z M1038.52087,581.504259 C1034.11458,581.504259 1030.54488,585.073752 1030.54488,589.47979 C1030.54488,593.884055 1034.11458,597.45532 1038.52087,597.45532 C1042.92539,597.45532 1046.49686,593.884055 1046.49686,589.47979 C1046.49686,585.073752 1042.92539,581.504259 1038.52087,581.504259 L1038.52087,581.504259 Z" id="Shape" transform="translate(1042.500000, 585.500000) scale(1, -1) translate(-1042.500000, -585.500000) "></path>
        </g>
    </g>
</svg>