<?xml version="1.0" encoding="UTF-8"?>
<svg width="336px" height="293px" viewBox="0 0 336 293" version="1.1" xmlns="http://www.w3.org/2000/svg" xmlns:xlink="http://www.w3.org/1999/xlink">
    <!-- Generator: Sketch 47.1 (45422) - http://www.bohemiancoding.com/sketch -->
    <title>searchimg</title>
    <desc>Created with Sketch.</desc>
    <defs></defs>
    <g id="Page-1" stroke="none" stroke-width="1" fill="none" fill-rule="evenodd">
        <g id="Home-Page" transform="translate(-880.000000, -3190.000000)" fill-rule="nonzero">
            <g id="searchimg" transform="translate(880.000000, 3190.000000)">
                <path d="M332.951182,274.613422 L291.508762,233.136236 C311.156128,205.437951 306.312862,167.293598 280.367759,145.392481 C254.422657,123.491365 216.034266,125.14245 192.062643,149.190487 C168.091019,173.238523 166.536111,211.658062 188.485874,237.567253 C210.435637,263.476444 248.564873,268.228724 276.194852,248.49896 L317.626431,289.954448 C321.880487,294.066062 328.642523,294.00726 332.824535,289.822287 C337.006548,285.637314 337.065308,278.870491 332.956603,274.613422 L332.951182,274.613422 Z M195.120577,195.553977 C195.120577,171.586185 214.536565,152.15645 238.4874,152.15645 C262.438235,152.15645 281.854223,171.586185 281.854223,195.553977 C281.854223,219.52177 262.438235,238.951504 238.4874,238.951504 C214.54771,238.924599 195.147464,219.510616 195.120577,195.553977 L195.120577,195.553977 Z" id="Shape" fill="#2F3640"></path>
                <path d="M195.86187,121.243539 C222.850316,105.727095 256.091538,105.812112 283,121.4664 L283,77 L0,77 L0,240 L164.063808,240 C156.376103,226.823167 152.323701,211.84763 152.319308,196.598533 C152.262922,165.506205 168.873423,136.759982 195.86187,121.243539 Z" id="Shape" fill="#192A56"></path>
                <path d="M0,0 L0,54 L283,54 L283,0 L0,0 Z M32.6538462,37.8 C26.6424391,37.8 21.7692308,32.9646753 21.7692308,27 C21.7692308,21.0353247 26.6424391,16.2 32.6538462,16.2 C38.6652532,16.2 43.5384615,21.0353247 43.5384615,27 C43.5384615,32.9646753 38.6652532,37.8 32.6538462,37.8 Z M65.3076923,37.8 C59.2962852,37.8 54.4230769,32.9646753 54.4230769,27 C54.4230769,21.0353247 59.2962852,16.2 65.3076923,16.2 C71.3190994,16.2 76.1923077,21.0353247 76.1923077,27 C76.1923077,32.9646753 71.3190994,37.8 65.3076923,37.8 Z M97.9615385,37.8 C91.9501314,37.8 87.0769231,32.9646753 87.0769231,27 C87.0769231,21.0353247 91.9501314,16.2 97.9615385,16.2 C103.972946,16.2 108.846154,21.0353247 108.846154,27 C108.846154,32.9646753 103.972946,37.8 97.9615385,37.8 Z" id="Shape" fill="#192A56"></path>
            </g>
        </g>
    </g>
</svg>