<?xml version="1.0" encoding="UTF-8"?>
<svg width="330px" height="330px" viewBox="0 0 330 330" version="1.1" xmlns="http://www.w3.org/2000/svg" xmlns:xlink="http://www.w3.org/1999/xlink">
    <!-- Generator: Sketch 47.1 (45422) - http://www.bohemiancoding.com/sketch -->
    <title>starrate</title>
    <desc>Created with Sketch.</desc>
    <defs></defs>
    <g id="Page-1" stroke="none" stroke-width="1" fill="none" fill-rule="evenodd">
        <g id="Home-Page" transform="translate(-205.000000, -2469.000000)">
            <g id="starrate" transform="translate(205.000000, 2469.000000)">
                <circle id="Oval-3" fill="" cx="165" cy="165" r="165"></circle>
                <g id="rating" opacity="0.898324275" transform="translate(59.000000, 79.000000)" fill-rule="nonzero" fill="#FFFFFF">
                    <path d="M171.193191,106.666667 C168.877515,106.666667 166.66393,107.112747 164.632767,107.923478 C162.571134,100.340903 155.649034,94.75 147.450779,94.75 C142.894215,94.75 138.73217,96.476725 135.579573,99.3124944 C132.426977,96.476725 128.264932,94.75 123.708368,94.75 C121.628137,94.75 119.629817,95.1098833 117.772765,95.7708611 L117.772765,76.875 C117.772765,67.018725 109.78463,59 99.9659558,59 C90.1472814,59 82.1591469,67.018725 82.1591469,76.875 L82.1591469,135.014431 L79.4002787,132.244997 C72.4417735,125.260242 61.1787691,125.258653 54.2194725,132.244997 C47.2605716,139.230547 47.2597801,150.536286 54.2194725,157.522233 L96.7888254,200.254606 C97.9019488,201.371992 99.4115705,202 100.985692,202 L171.193191,202 C173.647365,202 175.848682,200.483803 176.731504,198.184681 C184.872382,176.987711 189,154.721419 189,132.004678 L189,124.541667 C189,114.685392 181.012261,106.666667 171.193191,106.666667 Z M177.12919,132.004678 L177.12919,132.004678 C177.128794,151.890814 173.745896,171.409519 167.069134,190.083333 L103.444615,190.083333 L62.6139979,149.095958 C60.2947599,146.768236 60.2943642,143.000186 62.6139979,140.671669 C64.9336315,138.34355 68.6865154,138.34355 71.0065447,140.671669 L83.8994657,153.613964 C85.5974439,155.31765 88.151336,155.826094 90.3676901,154.903744 C92.5852314,153.981394 94.0307485,151.808986 94.0307485,149.399436 L94.0307485,76.875 C94.0307485,73.589575 96.69346,70.9166667 99.9663515,70.9166667 C103.239243,70.9166667 105.901954,73.589575 105.901954,76.875 L105.901954,124.541667 C105.901954,127.832256 108.559522,130.5 111.837557,130.5 C115.115593,130.5 117.77316,127.832256 117.77316,124.541667 L117.77316,112.625 C117.77316,109.339575 120.435872,106.666667 123.708763,106.666667 C126.981655,106.666667 129.644366,109.339575 129.644366,112.625 L129.644366,124.541667 C129.644366,127.832256 132.301934,130.5 135.579969,130.5 C138.858005,130.5 141.515572,127.832256 141.515572,124.541667 L141.515572,112.625 C141.515572,109.339575 144.178284,106.666667 147.451175,106.666667 C150.724067,106.666667 153.386778,109.339575 153.386778,112.625 L153.386778,124.541667 C153.386778,127.832256 156.044345,130.5 159.322381,130.5 C162.600417,130.5 165.257984,127.832256 165.257984,124.541667 C165.257984,121.256242 167.920695,118.583333 171.193587,118.583333 C174.466478,118.583333 177.12919,121.256242 177.12919,124.541667 L177.12919,132.004678 Z" id="Shape"></path>
                    <path d="M58.7187269,21.3560659 C58.0292145,19.1482769 56.168357,17.539388 53.9287201,17.2141442 L40.6694715,15.2864599 L34.7655462,3.31853491 C33.7617609,1.28324207 31.725477,0 29.5,0 C27.274523,0 25.2382391,1.28324207 24.2344538,3.31853491 L18.3305285,15.2860569 L5.07127994,17.2137412 C2.83203633,17.539388 0.970785527,19.1482769 0.281273133,21.3556629 C-0.408632594,23.5630488 0.193953252,25.9804125 1.83257769,27.5780166 L11.3417914,36.8512944 L9.10372778,49.9082019 C8.71629498,52.1683845 9.61112709,54.4587942 11.4137713,55.8202238 C13.2199555,57.1840715 15.6200722,57.3783312 17.6087629,56.3324727 L29.5,50.0786828 L41.3912371,56.3328758 C43.3834678,57.3807493 45.7835845,57.1824594 47.5862287,55.8206268 C49.3888729,54.4587942 50.283705,52.1687875 49.8962722,49.9086049 L47.6582086,36.8516975 L57.1674223,27.5784196 C58.8060467,25.9804125 59.4086326,23.5634518 58.7187269,21.3560659 Z M37.2325295,30.3270725 C35.8015847,31.7223565 35.147079,33.7588584 35.4888852,35.7522363 L36.2208775,40.0231271 L32.1943297,37.9048104 C30.503392,37.015327 28.4970014,37.015327 26.8060637,37.9048104 L22.7791225,40.022724 L23.5111148,35.7518333 C23.852921,33.7584554 23.1984153,31.7219534 21.7674705,30.3266695 L18.7970212,27.4301052 L23.0359688,26.813875 C24.9455995,26.5365915 26.6023173,25.3194461 27.4723694,23.5557943 L29.5,19.4465179 L31.5272372,23.5557943 C32.3972894,25.3198491 34.0540071,26.5365915 35.9636379,26.813875 L40.2025854,27.4301052 L37.2325295,30.3270725 Z" id="Shape"></path>
                    <path d="M130.718729,21.3560659 C130.029221,19.1482769 128.168376,17.539388 125.928754,17.2141442 L112.669594,15.2864599 L106.765708,3.31853491 C105.761929,1.28324207 103.725659,0 101.500197,0 C99.2747345,0 97.2384642,1.28324207 96.2346856,3.31813189 L90.3304063,15.2860569 L77.0712461,17.2137412 C74.8320174,17.539388 72.9707791,19.1482769 72.2812713,21.3556629 C71.5913701,23.5630488 72.193952,25.9804125 73.8325655,27.5780166 L83.3421091,36.8516975 L81.1040604,49.9086049 C80.7166302,52.1687875 81.6114563,54.4591973 83.4140885,55.8206268 C85.2202607,57.1844745 87.6203614,57.3787342 89.6090388,56.3328758 L101.500197,50.0786828 L113.391355,56.3328758 C115.383965,57.3807493 117.783673,57.1824594 119.586305,55.8206268 C121.388937,54.4587942 122.283763,52.1687875 121.896333,49.9086049 L119.658284,36.8516975 L129.167435,27.5784196 C130.806048,25.9804125 131.40863,23.5634518 130.718729,21.3560659 Z M109.232281,30.3266695 C107.801346,31.7219534 107.146845,33.7584554 107.488649,35.7518333 L108.220636,40.022724 L104.194508,37.9048104 C102.503582,37.015327 100.497205,37.015327 98.8062783,37.9048104 L94.779364,40.022724 L95.5113514,35.7518333 C95.8531553,33.7584554 95.1986539,31.7219534 93.7677187,30.3266695 L90.7972893,27.4301052 L95.0366019,26.813875 C96.9462199,26.5365915 98.6029266,25.3194461 99.4729729,23.5557943 L101.500197,19.4465179 L103.52742,23.5557943 C104.397467,25.3198491 106.054173,26.5365915 107.963791,26.813875 L112.202711,27.4301052 L109.232281,30.3266695 Z" id="Shape"></path>
                    <path d="M201.718729,21.3556629 C201.029221,19.1478739 199.168376,17.538985 196.928754,17.2137412 L183.669594,15.2860569 L177.765708,3.31853491 C176.761929,1.28324207 174.725659,0 172.500197,0 C170.274735,0 168.238464,1.28324207 167.234686,3.31813189 L161.330406,15.2860569 L148.071246,17.2137412 C145.832017,17.539388 143.970779,19.1482769 143.281271,21.3556629 C142.59137,23.5630488 143.193952,25.9804125 144.832565,27.5780166 L154.341716,36.8512944 L152.103667,49.9082019 C151.716237,52.1683845 152.611063,54.4587942 154.413695,55.8202238 C156.219867,57.1840715 158.619968,57.3783312 160.608645,56.3324727 L172.500197,50.0786828 L184.391355,56.3328758 C186.383572,57.3807493 188.783673,57.1824594 190.586305,55.8206268 C192.388937,54.4587942 193.283763,52.1687875 192.896333,49.9086049 L190.658284,36.8516975 L200.167435,27.5784196 C201.806048,25.9804125 202.40863,23.5630488 201.718729,21.3556629 Z M179.698658,30.4933359 C178.281246,31.8873157 177.63293,33.9219142 177.971504,35.9134289 L178.696573,40.1803279 L174.708106,38.0639911 C173.03316,37.175339 171.045744,37.175339 169.370798,38.0639911 L165.381941,40.1799252 L166.107011,35.9130263 C166.445585,33.9215115 165.797269,31.886913 164.379857,30.4929332 L161.4375,27.5990762 L165.636358,26.9834219 C167.527929,26.7063976 169.168979,25.4903898 170.030803,23.7283865 L172.039257,19.6229508 L174.047322,23.7283865 C174.909146,25.4907925 176.550196,26.7063976 178.441767,26.9834219 L182.640625,27.5990762 L179.698658,30.4933359 Z" id="Shape"></path>
                </g>
            </g>
        </g>
    </g>
</svg>